<?xml version="1.0" standalone="no"?>
<!DOCTYPE svg PUBLIC "-//W3C//DTD SVG 20010904//EN"
 "http://www.w3.org/TR/2001/REC-SVG-20010904/DTD/svg10.dtd">
<svg version="1.0" xmlns="http://www.w3.org/2000/svg"
 width="480.000000pt" height="480.000000pt" viewBox="0 0 480.000000 480.000000"
 preserveAspectRatio="xMidYMid meet">
<metadata>
Created by potrace 1.14, written by Peter Selinger 2001-2017
</metadata>
<g transform="translate(0.000000,480.000000) scale(0.100000,-0.100000)"
fill="#000000" stroke="none">
<path d="M3867 4474 c-9 -9 9 -40 27 -47 9 -4 18 -1 22 5 4 6 3 9 -2 6 -11 -6
-45 28 -36 36 3 3 3 6 0 6 -2 0 -8 -3 -11 -6z"/>
<path d="M3950 4421 c0 -6 4 -13 10 -16 6 -3 7 1 4 9 -7 18 -14 21 -14 7z"/>
<path d="M410 2980 l0 -1410 25 0 c14 0 25 -4 25 -9 0 -4 12 -7 27 -5 34 3
104 -21 115 -40 5 -8 14 -13 21 -10 16 6 71 -51 63 -65 -4 -7 -1 -8 8 -5 19 7
22 -12 3 -20 -6 -3 -3 -4 7 -3 15 1 24 -10 38 -48 10 -27 16 -56 13 -63 -2 -6
0 -12 5 -12 5 0 8 -9 7 -19 -1 -12 -6 -17 -17 -14 -10 4 -8 1 4 -9 10 -8 16
-20 12 -26 -3 -6 -2 -13 4 -17 12 -8 13 -102 1 -109 -5 -3 -7 -15 -4 -26 3
-11 2 -28 -3 -37 -4 -10 -9 -28 -10 -40 -3 -26 -51 -110 -68 -121 -7 -4 -16
-15 -19 -26 -4 -10 -13 -16 -21 -13 -17 7 -45 -23 -39 -40 2 -6 -5 -18 -16
-25 -12 -8 -18 -18 -14 -21 3 -4 2 -7 -4 -7 -14 0 -9 -129 6 -158 13 -25 14
-35 2 -27 -5 3 -13 0 -17 -7 -4 -7 -4 -10 1 -6 4 4 15 2 23 -5 13 -9 14 -9 8
0 -10 17 -7 17 39 -7 32 -17 50 -19 90 -14 61 8 142 40 149 61 3 8 11 11 17 7
8 -5 9 -3 4 6 -5 8 -2 17 6 24 8 6 16 20 19 31 2 11 6 833 7 1828 3 1635 2
1807 -13 1807 -9 0 -12 5 -8 13 6 10 4 10 -7 0 -9 -9 -54 -13 -150 -13 l-137
0 0 38 c1 77 8 72 -102 72 l-100 0 0 -1410z m225 -2169 c-3 -6 -11 -11 -17
-11 -6 0 -6 6 2 15 14 17 26 13 15 -4z"/>
<path d="M2129 4363 c-1 -15 0 -41 1 -56 l2 -28 -167 1 c-92 1 -170 -1 -173
-5 -4 -4 2 -5 13 -3 20 3 20 -2 19 -1392 -1 -1598 1 -1472 -19 -1615 -18 -135
-19 -137 -28 -153 -5 -6 -6 -16 -3 -20 3 -5 -2 -33 -10 -63 -8 -30 -17 -64
-20 -76 -2 -12 -9 -35 -16 -50 -6 -16 -12 -34 -14 -42 -6 -31 -27 -70 -34 -66
-5 3 -12 0 -16 -6 -4 -8 -3 -9 4 -5 19 11 14 -15 -5 -31 -10 -8 -12 -12 -6 -8
9 4 11 1 7 -9 -3 -9 -11 -13 -17 -9 -6 3 -7 1 -3 -5 8 -14 -35 -92 -70 -124
-13 -13 -24 -27 -24 -31 0 -11 -90 -105 -112 -118 -12 -6 -25 -6 -40 1 -22 11
-22 10 -4 -4 11 -9 17 -19 13 -22 -4 -4 -15 -1 -24 7 -16 12 -17 12 -6 -2 7
-9 10 -19 6 -22 -3 -4 179 -7 405 -7 l412 0 0 80 0 80 140 0 140 0 0 1860 0
1860 -140 0 c-139 0 -140 0 -140 23 0 13 6 29 13 36 10 11 9 12 -1 6 -10 -5
-13 -1 -10 16 3 21 -2 24 -34 27 -35 3 -38 1 -39 -25z"/>
<path d="M4145 4381 c-3 -5 0 -13 6 -17 8 -4 9 -3 5 4 -4 7 -2 12 3 12 11 0
15 -15 12 -34 -1 -5 4 -4 12 3 12 10 28 2 83 -40 75 -56 86 -68 77 -83 -4 -5
-1 -6 7 -1 8 5 19 -1 31 -16 18 -24 19 -23 19 79 l0 102 -124 0 c-69 0 -127
-4 -131 -9z"/>
<path d="M4126 4352 c-3 -5 1 -9 9 -9 8 0 12 4 9 9 -3 4 -7 8 -9 8 -2 0 -6 -4
-9 -8z"/>
<path d="M625 4341 c-3 -5 -2 -12 3 -15 5 -3 9 1 9 9 0 17 -3 19 -12 6z"/>
<path d="M3364 4275 c-2 -5 -3 -372 -2 -814 l3 -805 55 3 c84 4 94 5 102 15 4
6 13 4 22 -4 14 -11 16 -10 10 5 -6 14 -4 16 6 10 9 -5 11 -4 6 3 -4 7 5 23
19 38 14 14 33 43 42 65 8 21 20 39 25 39 6 0 8 6 5 14 -3 8 -3 17 1 20 3 4 7
14 9 24 2 9 5 26 8 37 16 80 34 217 40 310 14 199 0 673 -21 707 -3 4 1 8 8 8
9 0 10 2 2 8 -16 10 -66 162 -60 179 3 8 2 12 -3 9 -11 -7 -32 18 -29 35 2 7
-1 13 -7 14 -5 0 -23 13 -40 29 -16 16 -24 26 -16 21 10 -5 12 -4 7 4 -4 6
-12 9 -17 6 -5 -4 -18 0 -30 8 -11 8 -16 16 -10 18 6 2 -21 4 -60 4 -39 0 -73
-4 -75 -10z"/>
<path d="M4351 4207 c-8 -10 -7 -14 2 -14 8 0 14 6 14 14 0 7 -1 13 -2 13 -2
0 -8 -6 -14 -13z"/>
<path d="M3636 4173 c-6 -14 -5 -15 5 -6 7 7 10 15 7 18 -3 3 -9 -2 -12 -12z"/>
<path d="M4406 4131 c-4 -5 -2 -12 3 -15 5 -4 12 -2 15 3 4 5 2 12 -3 15 -5 4
-12 2 -15 -3z"/>
<path d="M3660 4111 c0 -6 4 -12 8 -15 5 -3 9 1 9 9 0 8 -4 15 -9 15 -4 0 -8
-4 -8 -9z"/>
<path d="M4485 3971 c-3 -5 -2 -12 3 -15 5 -3 9 1 9 9 0 17 -3 19 -12 6z"/>
<path d="M4519 3927 c7 -7 7 -15 -1 -24 -9 -11 -8 -13 3 -11 8 2 13 -3 11 -11
-3 -12 0 -12 12 -1 19 15 20 21 4 18 -8 -2 -13 6 -12 18 1 11 -5 21 -13 21 -9
0 -10 -4 -4 -10z"/>
<path d="M3730 3816 c0 -2 7 -7 16 -10 8 -3 12 -2 9 4 -6 10 -25 14 -25 6z"/>
<path d="M4573 3687 c0 -8 6 -14 14 -14 9 0 10 4 2 14 -6 7 -12 13 -14 13 -1
0 -2 -6 -2 -13z"/>
<path d="M4533 3195 c0 -8 4 -12 9 -9 5 3 6 10 3 15 -9 13 -12 11 -12 -6z"/>
<path d="M4490 3196 c0 -2 8 -10 18 -17 15 -13 16 -12 3 4 -13 16 -21 21 -21
13z"/>
<path d="M4490 3146 c0 -2 7 -7 16 -10 8 -3 12 -2 9 4 -6 10 -25 14 -25 6z"/>
<path d="M4385 2939 c-3 -4 2 -6 10 -5 21 3 28 13 10 13 -9 0 -18 -4 -20 -8z"/>
<path d="M4342 2928 c-7 -7 -12 -16 -12 -22 0 -5 7 -1 16 10 15 19 16 19 9 -1
-5 -16 -4 -18 6 -7 9 8 10 15 3 22 -7 7 -14 6 -22 -2z"/>
<path d="M4340 2848 c-30 -31 -59 -57 -63 -57 -4 -1 -23 -17 -43 -36 -19 -19
-41 -35 -49 -35 -8 0 -15 -4 -15 -9 0 -11 -19 -9 -40 4 -13 8 -13 7 0 -10 11
-14 12 -19 3 -22 -7 -3 -15 -3 -17 -1 -3 2 -12 -6 -21 -17 -9 -11 -13 -13 -9
-5 4 9 -2 7 -17 -6 -29 -25 -128 -66 -140 -58 -5 3 -9 1 -9 -5 0 -11 -130 -42
-143 -34 -6 3 -7 2 -4 -4 4 -6 35 -13 70 -17 36 -3 89 -14 118 -23 30 -9 57
-16 62 -15 4 1 7 -2 7 -7 0 -5 6 -9 13 -8 41 1 49 -3 44 -25 -5 -20 -4 -21 6
-7 11 14 18 13 65 -11 29 -14 49 -30 45 -35 -4 -4 -3 -5 4 -1 15 8 65 -22 57
-35 -3 -5 1 -7 8 -4 17 6 52 -21 43 -34 -3 -6 0 -9 8 -6 7 3 26 -6 43 -20 l29
-25 3 161 c1 88 1 229 0 312 l-3 152 -55 -57z"/>
<path d="M3664 2811 c4 -6 3 -18 -3 -25 -8 -9 -7 -13 2 -13 16 0 20 34 5 43
-7 4 -8 2 -4 -5z"/>
<path d="M4096 2702 c-3 -5 1 -9 9 -9 8 0 12 4 9 9 -3 4 -7 8 -9 8 -2 0 -6 -4
-9 -8z"/>
<path d="M3360 1510 l0 -950 47 0 c35 0 62 8 98 30 28 16 46 30 41 30 -5 0 1
8 12 19 12 10 22 23 22 28 0 16 56 64 65 56 4 -5 5 -2 1 5 -6 11 -11 11 -24 0
-14 -12 -14 -10 -3 10 7 12 16 20 20 18 4 -3 7 5 6 17 -1 12 4 37 12 54 30 74
79 303 89 418 6 69 5 556 -1 629 -8 102 -26 193 -58 301 -11 39 -22 76 -23 83
-1 8 -10 22 -19 33 -10 10 -15 25 -12 33 3 8 -4 22 -16 33 l-22 18 19 -22 c30
-35 14 -27 -38 19 -25 23 -54 43 -64 44 -9 2 -33 6 -52 10 -19 4 -48 6 -65 5
-21 -1 -26 1 -17 7 11 8 11 10 -2 15 -14 6 -16 -86 -16 -943z"/>
<path d="M4158 2423 c6 -2 9 -10 6 -15 -4 -7 -2 -8 5 -4 13 9 5 26 -12 25 -9
0 -8 -2 1 -6z"/>
<path d="M4484 2138 c-4 -7 -3 -10 1 -5 5 4 20 -3 34 -15 l26 -23 -24 28 c-28
31 -28 31 -37 15z"/>
<path d="M4585 1961 c-3 -5 -2 -12 3 -15 5 -3 9 1 9 9 0 17 -3 19 -12 6z"/>
<path d="M396 1548 c3 -5 10 -6 15 -3 13 9 11 12 -6 12 -8 0 -12 -4 -9 -9z"/>
<path d="M647 1469 c7 -7 15 -10 18 -7 3 3 -2 9 -12 12 -14 6 -15 5 -6 -5z"/>
<path d="M111 1337 c-8 -10 -7 -14 2 -14 8 0 14 6 14 14 0 7 -1 13 -2 13 -2 0
-8 -6 -14 -13z"/>
<path d="M1786 1342 c-2 -4 -1 -14 4 -22 7 -11 9 -9 7 8 -1 24 -3 26 -11 14z"/>
<path d="M85 1240 c-3 -6 1 -7 9 -4 18 7 21 14 7 14 -6 0 -13 -4 -16 -10z"/>
<path d="M1773 1185 c0 -8 4 -12 9 -9 5 3 6 10 3 15 -9 13 -12 11 -12 -6z"/>
<path d="M4594 1108 c-3 -4 -2 -8 3 -8 4 0 1 -5 -7 -10 -8 -5 -10 -10 -4 -10
6 0 18 8 27 18 15 16 15 19 2 19 -9 0 -18 -4 -21 -9z"/>
<path d="M4580 1000 c-9 -6 -10 -10 -3 -10 6 0 15 5 18 10 8 12 4 12 -15 0z"/>
<path d="M4496 948 c3 -5 10 -6 15 -3 13 9 11 12 -6 12 -8 0 -12 -4 -9 -9z"/>
<path d="M1700 940 c0 -5 5 -10 11 -10 5 0 7 5 4 10 -3 6 -8 10 -11 10 -2 0
-4 -4 -4 -10z"/>
<path d="M113 925 c0 -8 4 -12 9 -9 5 3 6 10 3 15 -9 13 -12 11 -12 -6z"/>
<path d="M4483 846 c-3 -6 -3 -8 2 -4 4 4 13 3 20 -2 8 -7 12 -5 12 3 0 16
-25 18 -34 3z"/>
<path d="M1616 792 c-3 -5 1 -9 9 -9 8 0 12 4 9 9 -3 4 -7 8 -9 8 -2 0 -6 -4
-9 -8z"/>
<path d="M4443 774 c3 -4 2 -16 -4 -28 -9 -19 -9 -19 4 -4 8 10 18 14 23 10 4
-4 2 1 -5 11 -7 9 -16 17 -19 17 -3 0 -2 -3 1 -6z"/>
<path d="M4389 708 c-5 -18 -6 -38 -1 -34 7 8 12 36 6 36 -2 0 -4 -1 -5 -2z"/>
<path d="M197 686 c-4 -10 -1 -13 8 -9 8 3 12 9 9 14 -7 12 -11 11 -17 -5z"/>
<path d="M4334 649 c-8 -14 14 -19 25 -6 8 10 7 14 -5 14 -8 0 -17 -4 -20 -8z"/>
<path d="M4325 595 c-66 -61 -104 -86 -74 -48 12 15 12 16 -1 8 -8 -6 -19 -10
-24 -10 -5 0 -11 -7 -13 -15 -4 -13 -3 -13 6 0 10 13 11 13 11 0 0 -8 -9 -21
-21 -28 -17 -11 -20 -11 -14 0 4 7 -2 3 -12 -8 -22 -26 -123 -75 -136 -67 -6
3 -7 1 -3 -5 3 -6 -2 -13 -11 -15 -10 -3 69 -5 175 -6 l192 -1 0 130 c0 72 -1
130 -2 130 -2 0 -34 -29 -73 -65z"/>
<path d="M4305 620 c-3 -6 1 -7 9 -4 18 7 21 14 7 14 -6 0 -13 -4 -16 -10z"/>
<path d="M3561 606 c-9 -10 -7 -17 6 -27 16 -12 17 -12 6 2 -10 12 -10 18 -1
27 7 7 9 12 6 12 -3 0 -11 -6 -17 -14z"/>
<path d="M206 592 c-3 -5 1 -9 9 -9 8 0 12 4 9 9 -3 4 -7 8 -9 8 -2 0 -6 -4
-9 -8z"/>
<path d="M253 533 c0 -9 4 -10 14 -2 7 6 13 12 13 14 0 1 -6 2 -13 2 -8 0 -14
-6 -14 -14z"/>
<path d="M1456 542 c-3 -6 1 -15 8 -21 8 -7 17 -8 20 -3 3 6 -1 15 -8 21 -8 7
-17 8 -20 3z"/>
<path d="M848 509 c-10 -5 -18 -15 -18 -22 0 -8 3 -7 9 2 5 7 13 11 18 8 5 -3
10 0 10 8 0 8 -1 15 -1 15 -1 0 -9 -5 -18 -11z"/>
<path d="M383 443 c4 -3 1 -13 -6 -22 -11 -14 -10 -14 5 -2 16 12 16 31 1 31
-4 0 -3 -3 0 -7z"/>
<path d="M1220 375 c5 -7 6 -16 2 -21 -4 -5 -3 -5 2 -1 15 12 15 34 0 34 -9 0
-11 -4 -4 -12z"/>
<path d="M3606 371 c-4 -5 -2 -12 3 -15 5 -4 12 -2 15 3 4 5 2 12 -3 15 -5 4
-12 2 -15 -3z"/>
<path d="M3736 359 c21 -23 23 -23 20 -2 -2 9 -11 17 -20 19 -17 2 -17 2 0
-17z"/>
<path d="M3783 357 c0 -8 6 -14 14 -14 9 0 10 4 2 14 -6 7 -12 13 -14 13 -1 0
-2 -6 -2 -13z"/>
<path d="M616 312 c-3 -5 1 -15 8 -21 11 -10 14 -9 12 3 -3 21 -13 29 -20 18z"/>
<path d="M664 309 c-3 -6 -2 -15 3 -20 5 -5 9 -1 9 11 0 23 -2 24 -12 9z"/>
<path d="M896 272 c-3 -5 1 -9 9 -9 8 0 12 4 9 9 -3 4 -7 8 -9 8 -2 0 -6 -4
-9 -8z"/>
</g>
</svg>
